PathFileType	4	(X/Y/Z)	D:\Share\Shared_Data\Ergonomics\Sit To Stand Pertubation\S3\Unperturbed.trc
DataRate	CameraRate	NumFrames	NumMarkers	Units	OrigDataRate	OrigDataStartFrame	OrigNumFrames	
100	100	18	18	m	100	3654	231
Frame#	Time	R_Thigh			R_ASIS			R_Pelvis			V_Sacral			L_Pelvis			L_ASIS			Clavical			R_Acromium			L_Acromium			Sternum			Torso			R_Thigh_Med			R_Thigh_Lat			R_Shank_Med			R_Shank_Lat			R_Shank			R_Heel			R_Toe			
		X1	Y1	Z1	X2	Y2	Z2	X3	Y3	Z3	X4	Y4	Z4	X5	Y5	Z5	X6	Y6	Z6	X7	Y7	Z7	X8	Y8	Z8	X9	Y9	Z9	X10	Y10	Z10	X11	Y11	Z11	X12	Y12	Z12	X13	Y13	Z13	X14	Y14	Z14	X15	Y15	Z15	X16	Y16	Z16	X17	Y17	Z17	X18	Y18	Z18	

3654	36.53	0.42227301	0.65662915	0.10310976	0.41848358	0.94475305	0.12757352	0.30571033	0.94912231	0.17639532	0.2026264	0.97441766	-0.014653637	0.31633264	0.96376099	-0.21540724	0.42313428	0.94192633	-0.15945264	0.3896796	1.3704503	-0.0077570305	0.32881595	1.425047	0.15970105	0.34639288	1.4300613	-0.16310281	0.41590231	1.2945198	-0.0037155995	0.3960173	1.3571769	-0.073008148	0.34427045	0.45640237	0.036101833	0.31044714	0.45691553	0.1375334	0.25855142	0.10493453	0.090633545	0.23546867	0.10144885	0.16991522	0.24174554	0.28920383	0.16505196	0.18095988	0.051615818	0.11971129	0.40050903	0.053609798	0.13994563
3655	36.54	0.42362537	0.65592737	0.10247248	0.42111996	0.94438263	0.12760719	0.30829794	0.94858844	0.17642946	0.20528789	0.97360962	-0.014770366	0.31907828	0.96312549	-0.21580438	0.42600064	0.94154944	-0.15948335	0.38828622	1.3697251	-0.0075473423	0.32678757	1.4237115	0.16003944	0.34435339	1.4291185	-0.1629211	0.41516031	1.2941101	-0.003494271	0.39470071	1.3566716	-0.072770897	0.34350491	0.45604926	0.035649155	0.31109921	0.45664914	0.13735052	0.2579306	0.10490588	0.090389633	0.23547902	0.10141394	0.16987489	0.24234445	0.28908633	0.16521927	0.18095444	0.051600323	0.1197325	0.40054843	0.053577564	0.13995422
3656	36.55	0.42519107	0.65536597	0.10153333	0.4235864	0.94399414	0.12767218	0.31074234	0.94808099	0.17645367	0.20786035	0.97295972	-0.014947351	0.32184161	0.96251318	-0.2162326	0.42873322	0.94107471	-0.15938498	0.38686874	1.3689684	-0.0073756967	0.32473947	1.4223027	0.16037585	0.34231509	1.4281123	-0.16278891	0.41439365	1.2936677	-0.0033203547	0.39337613	1.3561377	-0.072566345	0.34312708	0.4557121	0.03518018	0.31224307	0.45632089	0.13720433	0.25729071	0.10489797	0.090108955	0.23552017	0.10140608	0.16981131	0.24330737	0.28894443	0.16540141	0.18097169	0.05161895	0.11973765	0.40060577	0.05353471	0.13996416
3657	36.56	0.42698392	0.65494409	0.10038415	0.42587909	0.94362494	0.12777288	0.31303278	0.94761224	0.1764498	0.21031802	0.97243671	-0.01519379	0.32461313	0.96192981	-0.21666472	0.43131918	0.94052631	-0.1591631	0.38542963	1.3682229	-0.0072411599	0.3226662	1.4208571	0.16071652	0.34027728	1.4270751	-0.1627159	0.41360651	1.2932344	-0.0031889246	0.39204846	1.355605	-0.072398499	0.34315915	0.45539975	0.034718102	0.31374014	0.45596133	0.13708092	0.25672095	0.10490623	0.089820595	0.23559514	0.10142952	0.16972351	0.2444908	0.28880676	0.16556451	0.18101013	0.051670856	0.11972276	0.40067886	0.053486664	0.13997314
3658	36.57	0.42897968	0.65464478	0.099134193	0.42799628	0.94330725	0.12790849	0.31515997	0.94718738	0.17640475	0.21263277	0.97199316	-0.01550877	0.32736819	0.96137891	-0.21707101	0.43375555	0.93994348	-0.15883571	0.38398566	1.3675284	-0.007136106	0.32056723	1.4194139	0.16106232	0.33824158	1.426043	-0.16270367	0.41280869	1.292849	-0.0030928249	0.39072287	1.355098	-0.072272606	0.34358331	0.45511597	0.034286278	0.31543643	0.45559836	0.13696939	0.25630634	0.10492235	0.089556938	0.23570726	0.101485	0.16961507	0.24574503	0.28869867	0.16568222	0.18106592	0.05175045	0.11968615	0.40076349	0.053439121	0.13998
3659	36.58	0.43112085	0.65443896	0.097889503	0.42993881	0.9430658	0.12807199	0.31711865	0.94680634	0.17631598	0.21478227	0.97157178	-0.015882535	0.33006421	0.96086279	-0.21743188	0.43605035	0.93937848	-0.15843233	0.38256458	1.3669139	-0.0070488977	0.31844983	1.4180121	0.16140625	0.33621521	1.4250529	-0.16274413	0.4120134	1.2925413	-0.0030239723	0.38940622	1.354634	-0.072194313	0.3443389	0.45486072	0.033901718	0.3171889	0.45525247	0.13686276	0.2561008	0.10493694	0.089344131	0.23585551	0.10156963	0.16949316	0.24694618	0.28863544	0.16574059	0.18113364	0.05184848	0.11962864	0.40085388	0.053396706	0.13998442
3660	36.59	0.43332803	0.6542934	0.096738693	0.43171054	0.94291565	0.12825056	0.31890939	0.9464657	0.17619281	0.21675528	0.97111646	-0.016297415	0.33264514	0.96038452	-0.21773894	0.43821738	0.93888849	-0.15799094	0.38119522	1.3663954	-0.0069699488	0.31633099	1.4166876	0.16173384	0.33421426	1.4241384	-0.16281972	0.41123517	1.2923262	-0.0029749157	0.38811002	1.3542251	-0.072166832	0.3453342	0.45463165	0.033571976	0.31888544	0.45493604	0.13675667	0.25611316	0.10494223	0.089195824	0.23603307	0.10167654	0.16936754	0.24801666	0.28861935	0.16573853	0.18120737	0.051954189	0.11955316	0.40094421	0.053361996	0.1399864
3661	36.6	0.43551416	0.65417889	0.095746132	0.43331845	0.94286163	0.12842722	0.32053983	0.9461604	0.17605382	0.21855115	0.97058185	-0.016728479	0.33505399	0.95994983	-0.21798383	0.44026462	0.93852179	-0.1575535	0.37990128	1.365974	-0.0068948355	0.31423914	1.41547	0.16202737	0.33226474	1.423325	-0.16290741	0.41048636	1.2922014	-0.0029400482	0.38685245	1.3538777	-0.072187157	0.34646796	0.45442624	0.033297131	0.3204548	0.4546546	0.13664975	0.25631085	0.10493409	0.089112312	0.2362276	0.10179554	0.16924832	0.24892963	0.28864233	0.16568541	0.18128185	0.052057629	0.11946437	0.40102948	0.053335457	0.13998599
3662	36.61	0.43759882	0.6540755	0.094951775	0.43477402	0.94289917	0.12858415	0.32202411	0.94588495	0.17592117	0.2201767	0.96994	-0.017146481	0.33724332	0.95956665	-0.21815614	0.44218176	0.93830725	-0.15716046	0.37869873	1.3656378	-0.0068241425	0.31221222	1.4143813	0.16227182	0.33040076	1.4226281	-0.1629856	0.4097753	1.2921519	-0.002915827	0.38565643	1.3535948	-0.072245193	0.34764847	0.45424335	0.033072495	0.32186612	0.45440958	0.13654381	0.25663586	0.10491348	0.089083511	0.23642377	0.10191579	0.16914418	0.24969865	0.28869186	0.16559666	0.1813532	0.052151886	0.11936788	0.40110632	0.053316151	0.13998323
3663	36.62	0.43951959	0.65397394	0.094374901	0.43609259	0.94301593	0.1287061	0.32338129	0.9456344	0.17581413	0.22164287	0.96918311	-0.017522842	0.33918173	0.95924225	-0.21825182	0.44394345	0.93825153	-0.15684517	0.37759344	1.3653668	-0.0067624917	0.31029309	1.4134346	0.16245863	0.32866028	1.4220519	-0.16304021	0.40910483	1.2921567	-0.0028999627	0.38454272	1.3533773	-0.072326637	0.34880701	0.45408542	0.032890152	0.32311984	0.45420181	0.13644209	0.25702438	0.10488638	0.089094109	0.23660789	0.10202923	0.1690607	0.25035921	0.28875708	0.1654893	0.18141907	0.05223518	0.11927036	0.40117343	0.053302757	0.13997829
3664	36.63	0.44123859	0.65387384	0.094018776	0.4372919	0.94319452	0.12878293	0.32463214	0.94540607	0.1757442	0.2229622	0.96832202	-0.017835218	0.34085657	0.95898059	-0.21827647	0.44552826	0.93834485	-0.15662985	0.37658188	1.3651412	-0.0067155223	0.30852197	1.4126337	0.16258679	0.32707993	1.4215908	-0.16306665	0.40847327	1.2921958	-0.0028904581	0.38352414	1.353223	-0.072416237	0.34990344	0.45395728	0.032742271	0.32423483	0.45403293	0.13634755	0.257423	0.10486176	0.089128639	0.23677109	0.10213245	0.1689998	0.2509492	0.28883212	0.16537857	0.18147856	0.052312222	0.11918077	0.4012309	0.053294071	0.13997153
3665	36.64	0.44274539	0.65378033	0.093874321	0.43838873	0.94341541	0.12881047	0.32579431	0.94519965	0.17571341	0.22414812	0.96738281	-0.018072042	0.34227481	0.95878021	-0.21824327	0.44693237	0.93856598	-0.15652414	0.3756543	1.3649468	-0.0066852264	0.30693069	1.411973	0.16266284	0.3256918	1.4212292	-0.16306705	0.40787579	1.2922535	-0.0028852797	0.38260443	1.3531251	-0.072499908	0.35092728	0.45386249	0.032626472	0.32523697	0.45390445	0.13626309	0.25779788	0.10484853	0.089174576	0.23690894	0.10222678	0.16895909	0.25149509	0.28891592	0.1652753	0.1815322	0.052395306	0.11911217	0.40127985	0.053289028	0.13996379
3666	36.65	0.44405414	0.65369946	0.093921768	0.43939612	0.94365942	0.12878986	0.32687808	0.94501715	0.17571571	0.22521475	0.96640057	-0.0182339	0.34345987	0.9586344	-0.21817067	0.4481676	0.93888562	-0.15652551	0.37480048	1.3647728	-0.0066675205	0.30553851	1.4114404	0.16269897	0.32452103	1.4209458	-0.16304575	0.40730725	1.2923203	-0.0028821793	0.38178073	1.3530715	-0.072566032	0.35189175	0.4537977	0.03254858	0.32615036	0.4538157	0.13619199	0.25813669	0.10485245	0.089223389	0.23702145	0.10231639	0.16893233	0.25200781	0.28900986	0.16518497	0.18158211	0.052505348	0.11908252	0.40132172	0.053286633	0.13995667
3667	36.66	0.44519629	0.65363501	0.094131096	0.44032202	0.94390973	0.12872649	0.32788513	0.94486017	0.17573978	0.22617653	0.96541498	-0.018332203	0.34444653	0.95853143	-0.21808118	0.4492543	0.93926923	-0.15662082	0.37401276	1.3646121	-0.0066539445	0.30435196	1.4110173	0.16271092	0.32358209	1.4207163	-0.16300717	0.40676416	1.2923914	-0.0028783422	0.38104727	1.3530474	-0.072606194	0.35282431	0.4537511	0.032519588	0.32699225	0.4537623	0.13613701	0.25844458	0.104875	0.089269981	0.2371133	0.10240652	0.16891124	0.25248766	0.28911523	0.16510785	0.18163185	0.052671932	0.11911453	0.40135818	0.053285873	0.13995221
3668	36.67	0.44621182	0.65358917	0.094463432	0.44117017	0.94415314	0.12862846	0.32880981	0.94472882	0.17577048	0.22704727	0.96446515	-0.018387173	0.34527588	0.95845685	-0.2179987	0.450216	0.93968121	-0.15678908	0.37328632	1.3644594	-0.0066355739	0.30336615	1.4106809	0.16271602	0.32287445	1.420517	-0.16295581	0.40624631	1.2924624	-0.0028704987	0.38039801	1.3530367	-0.072614975	0.35375497	0.45370621	0.032548653	0.32777274	0.45373666	0.1360994	0.25873486	0.10491408	0.08931134	0.23719107	0.10250229	0.16888728	0.25293063	0.28923157	0.16504036	0.18168553	0.052931114	0.11923463	0.40139111	0.053285847	0.13995226
3669	36.68	0.44714078	0.65356268	0.09487429	0.44194138	0.94437982	0.12850587	0.32964236	0.94462006	0.17578951	0.22783887	0.96358539	-0.018424734	0.34598981	0.95839502	-0.21794505	0.4510759	0.94008801	-0.15700504	0.37261676	1.3643104	-0.0066053452	0.30256662	1.4104059	0.16273039	0.32238251	1.4203273	-0.16289595	0.40575668	1.2925288	-0.0028555846	0.37982755	1.353024	-0.072589844	0.35470663	0.45364819	0.03263649	0.32849603	0.45372986	0.13607784	0.25902185	0.10496507	0.089345383	0.23726077	0.10260645	0.16885252	0.2533322	0.28935654	0.16497586	0.18174672	0.053319199	0.11946948	0.40142221	0.053285873	0.13995776
3670	36.69	0.44801511	0.65355634	0.095318565	0.44263431	0.94458264	0.12836992	0.33037152	0.94452808	0.17577663	0.22855994	0.96280365	-0.018471813	0.34662698	0.95833063	-0.21793588	0.45185446	0.94046051	-0.15724214	0.37200183	1.3641616	-0.0065574908	0.30193106	1.4101676	0.16276572	0.3220784	1.420132	-0.16283049	0.40530075	1.2925841	-0.0028312371	0.37933099	1.3529955	-0.072531128	0.35568878	0.45356909	0.032773083	0.32916238	0.45373428	0.13606851	0.25931952	0.1050211	0.089371605	0.23732671	0.10271585	0.1688004	0.25368735	0.28948602	0.16490582	0.18181705	0.053861088	0.11983749	0.40145236	0.053285679	0.1399686
3671	36.7	0.44884744	0.65357074	0.095756447	0.44324545	0.94475653	0.1282326	0.33098706	0.94444489	0.17571242	0.2292153	0.96213947	-0.018552164	0.34721985	0.95825067	-0.21797827	0.4525679	0.94077576	-0.15747511	0.37144189	1.364009	-0.0064870553	0.30143356	1.4099443	0.16282698	0.32192596	1.4199219	-0.1627608	0.40488568	1.2926194	-0.0027957222	0.37890442	1.3529415	-0.07244136	0.35669299	0.45346844	0.032940784	0.32977057	0.45374466	0.13606636	0.25964124	0.105073	0.089393387	0.2373918	0.1028197	0.16872775	0.25399071	0.28961493	0.16482184	0.18189543	0.054552593	0.12033424	0.40148132	0.053285294	0.13998349
